<mxfile host="app.diagrams.net" modified="2024-03-06T22:25:14.457Z" agent="Mozilla/5.0 (Windows NT 10.0; Win64; x64) AppleWebKit/537.36 (KHTML, like Gecko) Chrome/122.0.0.0 Safari/537.36 Edg/122.0.0.0" etag="Ltsl-xRQvfan7q0pVitD" version="24.0.2" type="device">
  <diagram name="PÃ¡gina-1" id="FWPeTz9IQJ9xon6P1v5y">
    <mxGraphModel dx="986" dy="539" grid="1" gridSize="10" guides="1" tooltips="1" connect="1" arrows="1" fold="1" page="1" pageScale="1" pageWidth="827" pageHeight="1169" math="0" shadow="0">
      <root>
        <mxCell id="0" />
        <mxCell id="1" parent="0" />
        <mxCell id="5pkynMK3YcRI-c0hHfmM-1" value="User" style="swimlane;fontStyle=5;childLayout=stackLayout;horizontal=1;startSize=30;horizontalStack=0;resizeParent=1;resizeParentMax=0;resizeLast=0;collapsible=1;marginBottom=0;whiteSpace=wrap;html=1;fillColor=#fa6800;fontColor=#FF99FF;strokeColor=#C73500;fontSize=15;" vertex="1" parent="1">
          <mxGeometry x="60" y="310" width="140" height="90" as="geometry" />
        </mxCell>
        <mxCell id="5pkynMK3YcRI-c0hHfmM-2" value="&lt;b&gt;login:&lt;/b&gt; String" style="text;strokeColor=#d79b00;fillColor=#ffcd28;align=left;verticalAlign=middle;spacingLeft=4;spacingRight=4;overflow=hidden;points=[[0,0.5],[1,0.5]];portConstraint=eastwest;rotatable=0;whiteSpace=wrap;html=1;gradientColor=default;fontColor=#39FF12;" vertex="1" parent="5pkynMK3YcRI-c0hHfmM-1">
          <mxGeometry y="30" width="140" height="30" as="geometry" />
        </mxCell>
        <mxCell id="5pkynMK3YcRI-c0hHfmM-3" value="&lt;b&gt;password: &lt;/b&gt;String" style="text;strokeColor=#d79b00;fillColor=#ffcd28;align=left;verticalAlign=middle;spacingLeft=4;spacingRight=4;overflow=hidden;points=[[0,0.5],[1,0.5]];portConstraint=eastwest;rotatable=0;whiteSpace=wrap;html=1;gradientColor=default;fontColor=#66FF66;" vertex="1" parent="5pkynMK3YcRI-c0hHfmM-1">
          <mxGeometry y="60" width="140" height="30" as="geometry" />
        </mxCell>
        <mxCell id="5pkynMK3YcRI-c0hHfmM-5" value="Profile" style="swimlane;fontStyle=5;childLayout=stackLayout;horizontal=1;startSize=30;horizontalStack=0;resizeParent=1;resizeParentMax=0;resizeLast=0;collapsible=1;marginBottom=0;whiteSpace=wrap;html=1;fillColor=#1ba1e2;strokeColor=#006EAF;fontColor=#ffffff;fontSize=15;" vertex="1" parent="1">
          <mxGeometry x="370" y="150" width="140" height="180" as="geometry" />
        </mxCell>
        <mxCell id="5pkynMK3YcRI-c0hHfmM-6" value="&lt;b&gt;name:&lt;/b&gt; String" style="text;strokeColor=none;fillColor=#99CCFF;align=left;verticalAlign=middle;spacingLeft=4;spacingRight=4;overflow=hidden;points=[[0,0.5],[1,0.5]];portConstraint=eastwest;rotatable=0;whiteSpace=wrap;html=1;gradientColor=default;" vertex="1" parent="5pkynMK3YcRI-c0hHfmM-5">
          <mxGeometry y="30" width="140" height="30" as="geometry" />
        </mxCell>
        <mxCell id="5pkynMK3YcRI-c0hHfmM-7" value="&lt;b&gt;surname:&lt;/b&gt; String" style="text;strokeColor=#6c8ebf;fillColor=#dae8fc;align=left;verticalAlign=middle;spacingLeft=4;spacingRight=4;overflow=hidden;points=[[0,0.5],[1,0.5]];portConstraint=eastwest;rotatable=0;whiteSpace=wrap;html=1;gradientColor=default;" vertex="1" parent="5pkynMK3YcRI-c0hHfmM-5">
          <mxGeometry y="60" width="140" height="30" as="geometry" />
        </mxCell>
        <mxCell id="5pkynMK3YcRI-c0hHfmM-15" value="&lt;b&gt;dateOfBirth:&lt;/b&gt; Date&lt;div&gt;&lt;br&gt;&lt;/div&gt;" style="text;strokeColor=#6c8ebf;fillColor=#dae8fc;align=left;verticalAlign=middle;spacingLeft=4;spacingRight=4;overflow=hidden;points=[[0,0.5],[1,0.5]];portConstraint=eastwest;rotatable=0;whiteSpace=wrap;html=1;gradientColor=default;" vertex="1" parent="5pkynMK3YcRI-c0hHfmM-5">
          <mxGeometry y="90" width="140" height="30" as="geometry" />
        </mxCell>
        <mxCell id="5pkynMK3YcRI-c0hHfmM-13" value="&lt;div&gt;&lt;b&gt;comments:&lt;/b&gt; String&lt;/div&gt;" style="text;strokeColor=#6c8ebf;fillColor=#dae8fc;align=left;verticalAlign=middle;spacingLeft=4;spacingRight=4;overflow=hidden;points=[[0,0.5],[1,0.5]];portConstraint=eastwest;rotatable=0;whiteSpace=wrap;html=1;gradientColor=default;" vertex="1" parent="5pkynMK3YcRI-c0hHfmM-5">
          <mxGeometry y="120" width="140" height="30" as="geometry" />
        </mxCell>
        <mxCell id="5pkynMK3YcRI-c0hHfmM-14" value="&lt;div&gt;&lt;b&gt;rol:&lt;/b&gt; String&lt;/div&gt;" style="text;strokeColor=#6c8ebf;fillColor=#dae8fc;align=left;verticalAlign=middle;spacingLeft=4;spacingRight=4;overflow=hidden;points=[[0,0.5],[1,0.5]];portConstraint=eastwest;rotatable=0;whiteSpace=wrap;html=1;gradientColor=default;" vertex="1" parent="5pkynMK3YcRI-c0hHfmM-5">
          <mxGeometry y="150" width="140" height="30" as="geometry" />
        </mxCell>
        <mxCell id="5pkynMK3YcRI-c0hHfmM-9" value="Credentials" style="swimlane;fontStyle=5;childLayout=stackLayout;horizontal=1;startSize=30;horizontalStack=0;resizeParent=1;resizeParentMax=0;resizeLast=0;collapsible=1;marginBottom=0;whiteSpace=wrap;html=1;fillColor=#d5e8d4;strokeColor=#82b366;gradientColor=#97d077;verticalAlign=top;fontSize=15;" vertex="1" parent="1">
          <mxGeometry x="650" y="50" width="140" height="120" as="geometry" />
        </mxCell>
        <mxCell id="5pkynMK3YcRI-c0hHfmM-12" value="&lt;b&gt;email:&lt;/b&gt; String" style="text;strokeColor=none;fillColor=#003300;align=left;verticalAlign=middle;spacingLeft=4;spacingRight=4;overflow=hidden;points=[[0,0.5],[1,0.5]];portConstraint=eastwest;rotatable=0;whiteSpace=wrap;html=1;gradientColor=default;fontColor=#3CB7F5;" vertex="1" parent="5pkynMK3YcRI-c0hHfmM-9">
          <mxGeometry y="30" width="140" height="30" as="geometry" />
        </mxCell>
        <mxCell id="5pkynMK3YcRI-c0hHfmM-10" value="&lt;b&gt;address:&lt;/b&gt; String" style="text;strokeColor=none;fillColor=#bdddb6;align=left;verticalAlign=middle;spacingLeft=4;spacingRight=4;overflow=hidden;points=[[0,0.5],[1,0.5]];portConstraint=eastwest;rotatable=0;whiteSpace=wrap;html=1;fillStyle=solid;gradientColor=default;labelBackgroundColor=none;fontColor=#12C2F7;" vertex="1" parent="5pkynMK3YcRI-c0hHfmM-9">
          <mxGeometry y="60" width="140" height="30" as="geometry" />
        </mxCell>
        <mxCell id="5pkynMK3YcRI-c0hHfmM-11" value="&lt;b&gt;phone:&lt;/b&gt; Number" style="text;strokeColor=#3A5431;fillColor=#6d8764;align=left;verticalAlign=middle;spacingLeft=4;spacingRight=4;overflow=hidden;points=[[0,0.5],[1,0.5]];portConstraint=eastwest;rotatable=0;whiteSpace=wrap;html=1;fontColor=#08D6FF;gradientColor=default;" vertex="1" parent="5pkynMK3YcRI-c0hHfmM-9">
          <mxGeometry y="90" width="140" height="30" as="geometry" />
        </mxCell>
        <mxCell id="5pkynMK3YcRI-c0hHfmM-29" value="" style="endArrow=classic;html=1;rounded=0;exitX=1.024;exitY=0.044;exitDx=0;exitDy=0;exitPerimeter=0;strokeColor=#99CCFF;" edge="1" parent="1" source="5pkynMK3YcRI-c0hHfmM-2">
          <mxGeometry relative="1" as="geometry">
            <mxPoint x="210" y="190" as="sourcePoint" />
            <mxPoint x="370" y="190" as="targetPoint" />
            <Array as="points">
              <mxPoint x="280" y="340" />
              <mxPoint x="280" y="190" />
            </Array>
          </mxGeometry>
        </mxCell>
        <mxCell id="5pkynMK3YcRI-c0hHfmM-32" value="" style="endArrow=classic;html=1;rounded=0;exitX=1;exitY=0.25;exitDx=0;exitDy=0;strokeColor=#9DFF1C;" edge="1" parent="1" source="5pkynMK3YcRI-c0hHfmM-5">
          <mxGeometry relative="1" as="geometry">
            <mxPoint x="510" y="261" as="sourcePoint" />
            <mxPoint x="650" y="110" as="targetPoint" />
            <Array as="points">
              <mxPoint x="560" y="195" />
              <mxPoint x="560" y="110" />
            </Array>
          </mxGeometry>
        </mxCell>
      </root>
    </mxGraphModel>
  </diagram>
</mxfile>
